<svg xmlns="http://www.w3.org/2000/svg" width="60.801" height="38" viewBox="0 0 60.801 38">
  <g id="hand-shake" transform="translate(0 -96.003)">
    <g id="Group_167" data-name="Group 167" transform="translate(8.864 98.694)">
      <g id="Group_166" data-name="Group 166">
        <path id="Path_44" data-name="Path 44" d="M113.786,142.023c-1.193-2.488-5.462-5.941-9.586-9.277-2.3-1.86-4.474-3.618-5.86-5a1.266,1.266,0,0,0-1.325-.3c-.854.309-1.381.547-1.8.732a4.189,4.189,0,0,1-1.7.466,1.266,1.266,0,0,0-.927.555c-1.791,2.678-3.646,2.45-4.884,2.034-.4-.132-.466-.3-.5-.464-.266-1.112,1.069-3.7,2.8-5.432,4.117-4.119,6.24-5.15,10.724-3.146,5.087,2.275,10.184,4.056,10.235,4.074a1.267,1.267,0,1,0,.833-2.394c-.051-.018-5.047-1.763-10.032-4-5.809-2.6-9-.887-13.549,3.668-1.733,1.733-4.086,5.239-3.478,7.81a3.133,3.133,0,0,0,2.176,2.283c2.87.948,5.49.041,7.441-2.549a6.4,6.4,0,0,0,1.9-.6c.238-.106.517-.23.887-.38,1.449,1.36,3.4,2.944,5.465,4.608,3.724,3.012,7.947,6.427,8.9,8.4a1.484,1.484,0,0,1-.378,1.9,1.4,1.4,0,0,1-1.561.307,1.266,1.266,0,0,0-1.979,1.178,1.53,1.53,0,0,1-.97,1.426,1.944,1.944,0,0,1-1.974.046,1.266,1.266,0,0,0-2.126.808,2.407,2.407,0,0,1-1.495,1.941,1.336,1.336,0,0,1-1.454-.225,1.281,1.281,0,0,0-1.158-.294,1.265,1.265,0,0,0-.889.8c-.048.127-.157.431-1.343.431a7.294,7.294,0,0,1-3.1-1.062c-.889-.585-6.465-4.745-11.281-8.778-.676-.57-1.847-1.791-2.88-2.87-.917-.958-1.756-1.827-2.186-2.191a1.267,1.267,0,0,0-1.637,1.936c.393.332,1.153,1.135,1.991,2.009,1.13,1.181,2.3,2.4,3.083,3.06,4.717,3.95,10.387,8.213,11.517,8.956a9.718,9.718,0,0,0,4.5,1.474,4.36,4.36,0,0,0,2.875-.846,3.943,3.943,0,0,0,2.88-.03,4.99,4.99,0,0,0,2.637-2.435,4.9,4.9,0,0,0,3.179-.458,4.3,4.3,0,0,0,2.115-2.209,4.143,4.143,0,0,0,2.906-1.041A4.027,4.027,0,0,0,113.786,142.023Z" transform="translate(-74.642 -118.658)" fill="#fff"/>
      </g>
    </g>
    <g id="Group_169" data-name="Group 169" transform="translate(12.667 101.069)">
      <g id="Group_168" data-name="Group 168">
        <path id="Path_45" data-name="Path 45" d="M119.333,138.663h-11.4a1.267,1.267,0,0,0,0,2.533h11.4a1.267,1.267,0,1,0,0-2.533Z" transform="translate(-106.666 -138.663)" fill="#fff"/>
      </g>
    </g>
    <g id="Group_171" data-name="Group 171" transform="translate(45.697 118.801)">
      <g id="Group_170" data-name="Group 170">
        <path id="Path_46" data-name="Path 46" d="M390.833,288.539a1.263,1.263,0,0,0-1.758-.345l-3.7,2.488a1.267,1.267,0,0,0,1.414,2.1l3.7-2.488A1.268,1.268,0,0,0,390.833,288.539Z" transform="translate(-384.811 -287.977)" fill="#fff"/>
      </g>
    </g>
    <g id="Group_173" data-name="Group 173" transform="translate(34.203 117.535)">
      <g id="Group_172" data-name="Group 172">
        <path id="Path_47" data-name="Path 47" d="M297.668,285.19c-.907-.714-4.963-4.867-7.471-7.481a1.267,1.267,0,0,0-1.829,1.753c.651.679,6.394,6.665,7.729,7.719a1.262,1.262,0,0,0,.783.271,1.28,1.28,0,0,0,1-.484A1.266,1.266,0,0,0,297.668,285.19Z" transform="translate(-288.016 -277.317)" fill="#fff"/>
      </g>
    </g>
    <g id="Group_175" data-name="Group 175" transform="translate(30.401 121.337)">
      <g id="Group_174" data-name="Group 174">
        <path id="Path_48" data-name="Path 48" d="M264.4,315.948c-1.518-1.214-5.33-5.264-6.192-6.2a1.268,1.268,0,1,0-1.867,1.715c.046.048,4.6,4.96,6.475,6.465a1.267,1.267,0,0,0,1.583-1.979Z" transform="translate(-256.005 -309.337)" fill="#fff"/>
      </g>
    </g>
    <g id="Group_177" data-name="Group 177" transform="translate(25.335 123.868)">
      <g id="Group_176" data-name="Group 176" transform="translate(0 0)">
        <path id="Path_49" data-name="Path 49" d="M221.76,337.276c-1.806-1.523-5.5-5.457-6.225-6.23a1.267,1.267,0,0,0-1.852,1.73c1.039,1.112,4.575,4.862,6.442,6.437a1.267,1.267,0,1,0,1.634-1.938Z" transform="translate(-213.343 -330.644)" fill="#fff"/>
      </g>
    </g>
    <g id="Group_179" data-name="Group 179" transform="translate(0 96.003)">
      <g id="Group_178" data-name="Group 178" transform="translate(0 0)">
        <path id="Path_50" data-name="Path 50" d="M14.805,98.883C12.634,96.826,3.952,96.16,1.343,96.005A1.266,1.266,0,0,0,0,97.269v22.8a1.267,1.267,0,0,0,1.267,1.267h7.6a1.265,1.265,0,0,0,1.2-.874c.185-.568,4.55-13.964,5.125-20.551A1.26,1.26,0,0,0,14.805,98.883ZM7.942,118.8H2.533V98.627c4.071.322,8.464,1.021,10.06,1.8C11.922,105.972,8.885,115.829,7.942,118.8Z" transform="translate(0 -96.003)" fill="#fff"/>
      </g>
    </g>
    <g id="Group_181" data-name="Group 181" transform="translate(43.113 98.536)">
      <g id="Group_180" data-name="Group 180">
        <path id="Path_51" data-name="Path 51" d="M379.468,117.33c-9.946,0-15.464,2.546-15.694,2.652a1.26,1.26,0,0,0-.676.788,1.277,1.277,0,0,0,.139,1.029c1.566,2.521,6.468,16.52,7.41,19.935a1.267,1.267,0,0,0,1.221.93h7.6a1.267,1.267,0,0,0,1.267-1.267V118.6A1.266,1.266,0,0,0,379.468,117.33Zm-1.267,22.8h-5.386c-1.2-3.912-4.748-14.111-6.726-18.327a41.257,41.257,0,0,1,12.112-1.925Z" transform="translate(-363.046 -117.33)" fill="#fff"/>
      </g>
    </g>
  </g>
</svg>
