<svg xmlns="http://www.w3.org/2000/svg" width="40.914" height="38.202" viewBox="0 0 40.914 38.202">
  <g id="mortarboard_" data-name="mortarboard " transform="translate(0.1 -16.965)">
    <g id="Group_187" data-name="Group 187" transform="translate(0 17.068)">
      <g id="Group_186" data-name="Group 186" transform="translate(0 0)">
        <path id="Path_52" data-name="Path 52" d="M342.852,443.746a.677.677,0,0,0-.822.493l-.679,2.714a.678.678,0,0,0,.494.823.658.658,0,0,0,.165.02.679.679,0,0,0,.658-.514l.679-2.714A.679.679,0,0,0,342.852,443.746Z" transform="translate(-314.188 -409.797)" fill="#fff" stroke="#222f58" stroke-width="0.2"/>
        <path id="Path_53" data-name="Path 53" d="M20.357,155.245a.672.672,0,0,0,.259-.052l7.464-3.089a.679.679,0,0,0-.52-1.254l-7.2,2.982-19-7.862v-.225a.679.679,0,0,0-1.357,0v.679a.678.678,0,0,0,.419.627L20.1,155.193A.671.671,0,0,0,20.357,155.245Z" transform="translate(0 -134.888)" fill="#fff" stroke="#222f58" stroke-width="0.2"/>
        <path id="Path_54" data-name="Path 54" d="M106.979,240.745a.678.678,0,0,0-.909-.308,15.816,15.816,0,0,1-6.485,1.479v-6.088a.679.679,0,0,0-1.357,0v6.081c-8.426-.269-11.145-5.373-11.536-6.223v-4.609a.679.679,0,0,0-1.357,0v4.75a.686.686,0,0,0,.048.252c.118.294,3.006,7.212,13.523,7.212a17.439,17.439,0,0,0,7.765-1.639A.677.677,0,0,0,106.979,240.745Z" transform="translate(-78.549 -213.436)" fill="#fff" stroke="#222f58" stroke-width="0.2"/>
        <path id="Path_55" data-name="Path 55" d="M376.146,452.266a.678.678,0,0,0-.679.679v2.036a.679.679,0,0,0,1.357,0v-2.036A.678.678,0,0,0,376.146,452.266Z" transform="translate(-345.61 -417.659)" fill="#fff" stroke="#222f58" stroke-width="0.2"/>
        <path id="Path_56" data-name="Path 56" d="M40.036,27.246a.678.678,0,0,0-.679.679v.224L31.214,31.5V30.274L40.3,26.516a.679.679,0,0,0,0-1.254L20.616,17.119a.679.679,0,0,0-.518,0L.419,25.262a.678.678,0,0,0,0,1.254L20.1,34.659a.677.677,0,0,0,.518,0l7.116-2.944a.678.678,0,1,0-.518-1.253L20.357,33.3l-17.9-7.409,17.9-7.409,17.9,7.409-7.791,3.224-7.462-2.786a1.62,1.62,0,0,0,.063-.438c0-1.141-1.192-2.036-2.714-2.036s-2.714.894-2.714,2.036,1.192,2.036,2.714,2.036a3.28,3.28,0,0,0,1.756-.484l7.744,2.891v2.174h0V47.049a2.036,2.036,0,1,0,1.357,0V43.2a8.244,8.244,0,0,0,2.677-3.516.686.686,0,0,0,.037-.222V34.71a.679.679,0,0,0-1.357,0v4.624a6.941,6.941,0,0,1-1.357,2.05V32.968l9.08-3.737a.678.678,0,0,0,.42-.628v-.679A.678.678,0,0,0,40.036,27.246Zm-19.679-.679c-.829,0-1.357-.4-1.357-.679s.529-.679,1.357-.679,1.357.4,1.357.679S21.186,26.567,20.357,26.567ZM30.536,49.639a.679.679,0,1,1,.679-.679A.679.679,0,0,1,30.536,49.639Z" transform="translate(0 -17.068)" fill="#fff" stroke="#222f58" stroke-width="0.2"/>
        <path id="Path_57" data-name="Path 57" d="M402.4,444.242a.679.679,0,0,0-1.316.33l.679,2.714a.679.679,0,0,0,.658.514.658.658,0,0,0,.165-.02.678.678,0,0,0,.494-.823Z" transform="translate(-369.173 -409.8)" fill="#fff" stroke="#222f58" stroke-width="0.2"/>
      </g>
    </g>
  </g>
</svg>
