<svg xmlns="http://www.w3.org/2000/svg" width="44.362" height="44" viewBox="0 0 44.362 44">
  <g id="XMLID_129_" transform="translate(0 -1.995)">
    <path id="XMLID_134_" d="M222.922,5.656H199.34a1.42,1.42,0,0,0-1.419,1.42V17.091l1.026-1.2a3.267,3.267,0,0,1,1.812-1.069V8.5H221.5v18.54H200.759v-3.1l-.639.747a3.3,3.3,0,0,1-2.2,1.136v2.64a1.419,1.419,0,0,0,1.419,1.419H207L203.108,47.54a1.468,1.468,0,0,0,2.867.633l4.03-18.3h2.343l4.03,18.3a1.468,1.468,0,1,0,2.868-.633l-3.891-17.665h7.567a1.419,1.419,0,0,0,1.419-1.419V7.076A1.42,1.42,0,0,0,222.922,5.656Z" transform="translate(-179.98 -3.329)" fill="#042b2e"/>
    <path id="XMLID_132_" d="M182.93,93.631a.547.547,0,0,0-.711-.309l-8.361,2.951a1.836,1.836,0,0,0-2.514.256l-2.653,3.1-2.352-2.016c.016.167.051.328.051.5v4.378l1.309,1.121a1.836,1.836,0,0,0,2.588-.2l3.158-3.693,2.547-1.49,6.7-3.922A.547.547,0,0,0,182.93,93.631Z" transform="translate(-151.261 -83.014)" fill="#042b2e"/>
    <path id="XMLID_131_" d="M9.964,105.776H8.389a3.677,3.677,0,0,0-2.941,1.48L.611,111.709A1.835,1.835,0,0,0,.468,114.3l3.946,4.4a1.835,1.835,0,1,0,2.733-2.448l-2.72-3.037,3.863-3.457-2.25,3.057,2.2,2.457a3.293,3.293,0,0,1-3.547,5.307s.017,8.49.017,17.582a2.2,2.2,0,1,0,4.4,0V125.043h1.469v13.123a3.641,3.641,0,0,1-.459,1.743,2.176,2.176,0,0,0,1.33.459,2.2,2.2,0,0,0,2.2-2.2c0-9.09,0-5.279,0-28.7A3.694,3.694,0,0,0,9.964,105.776Z" transform="translate(0 -94.373)" fill="#042b2e"/>
    <path id="XMLID_130_" d="M56.207,10.081a4.125,4.125,0,0,0,3.923,0,4.292,4.292,0,1,0-3.923,0Z" transform="translate(-48.993)" fill="#042b2e"/>
  </g>
</svg>
